<svg xmlns="http://www.w3.org/2000/svg" xmlns:xlink="http://www.w3.org/1999/xlink" viewBox="0 0 14 14"><defs><style>.cls-1{isolation:isolate;}.cls-2{fill:url(#linear-gradient);}.cls-3{mix-blend-mode:overlay;}.cls-4{fill:#d6e0d5;}</style><linearGradient id="linear-gradient" x1="2.05" y1="2.05" x2="11.95" y2="11.95" gradientUnits="userSpaceOnUse"><stop offset="0.07" stop-color="#abba97"/><stop offset="0.35" stop-color="#438a44"/><stop offset="0.87" stop-color="#4ca144"/></linearGradient></defs><g class="cls-1"><g id="Layer_1" data-name="Layer 1"><rect class="cls-2" width="14" height="14" rx="7"/><g class="cls-3"><path class="cls-4" d="M8.74,10.4a2.33,2.33,0,0,1-.52.28,3.1,3.1,0,0,1-.67.21,4,4,0,0,1-.8.08,3,3,0,0,1-.69-.08,2.52,2.52,0,0,1-.61-.25A2.32,2.32,0,0,1,5,10.23a2.34,2.34,0,0,1-.38-.55,3,3,0,0,1-.26-.78A3.9,3.9,0,0,1,4.23,8V7.05a4.29,4.29,0,0,1,.09-.9,3.66,3.66,0,0,1,.25-.75,3.07,3.07,0,0,1,.36-.55A2.27,2.27,0,0,1,6,4.13a2.69,2.69,0,0,1,.7-.1,3,3,0,0,1,1,.15A1.87,1.87,0,0,1,8.86,5.25a3.24,3.24,0,0,1,.22.88H7.81a4.13,4.13,0,0,0-.1-.44,1.13,1.13,0,0,0-.19-.32.81.81,0,0,0-.32-.21,1.37,1.37,0,0,0-.47-.07.92.92,0,0,0-.29,0,.94.94,0,0,0-.26.14,1.24,1.24,0,0,0-.29.31A2.19,2.19,0,0,0,5.68,6a4.57,4.57,0,0,0-.1.46,4.39,4.39,0,0,0,0,.54V8a3.41,3.41,0,0,0,0,.66,2.67,2.67,0,0,0,.13.54,2,2,0,0,0,.13.25,1.56,1.56,0,0,0,.16.2.91.91,0,0,0,.35.22,1.23,1.23,0,0,0,.44.08,1.42,1.42,0,0,0,.3,0l.28-.07a.69.69,0,0,0,.23-.09.48.48,0,0,0,.15-.11V8.4H6.66v-1H9.08v2.66A1.74,1.74,0,0,1,8.74,10.4Z" transform="translate(-1 -1)"/><path class="cls-4" d="M6.81,8.66v1h0l.26,0a.84.84,0,0,0,.24-.06l.19-.07h0V8.66Zm.77-2.28,0-.22a1.87,1.87,0,0,0-.09-.39,1,1,0,0,0-.13-.23A.53.53,0,0,0,7.1,5.4a1.14,1.14,0,0,0-.29-.06V7.16h1.3V6.38Zm0,4.76a4.89,4.89,0,0,1-.79.09V12h1.3V11A3.8,3.8,0,0,1,7.6,11.14Zm2.71-2a2.14,2.14,0,0,0,.51-.3,1.6,1.6,0,0,0,.38-.4,1.67,1.67,0,0,0,.25-.52,2.57,2.57,0,0,0,.08-.65,2,2,0,0,0-.17-.88,1.83,1.83,0,0,0-.49-.64,2.18,2.18,0,0,0-.78-.38,3.6,3.6,0,0,0-1-.14,3.13,3.13,0,0,1,.21.89l0,.19.2,0a1,1,0,0,1,.35.18.81.81,0,0,1,.24.34,1.21,1.21,0,0,1,.09.48,1.24,1.24,0,0,1-.07.4.79.79,0,0,1-.18.31,1,1,0,0,1-.37.25l-.28.07V9.92l1,2.05h1.4v-.06Zm-2.76-3a1.87,1.87,0,0,0-.09-.39,1,1,0,0,0-.13-.23A.53.53,0,0,0,7.1,5.4a1.14,1.14,0,0,0-.29-.06V7.16h1.3V6.38H7.58Zm-.74,3.5h0l.26,0a.84.84,0,0,0,.24-.06l.19-.07h0V8.66h-.7Z" transform="translate(-1 -1)"/></g></g></g></svg>